<svg width="942" height="829" viewBox="0 0 942 829" fill="none" xmlns="http://www.w3.org/2000/svg">
<g clip-path="url(#clip0_32_8)">
<rect width="942" height="829" fill="black" fill-opacity="0.41"/>
<path d="M471 829H455H386.693C386.693 706.604 386.693 706.604 386.693 706.604V393.015C386.693 385.595 382.585 378.785 376.021 375.324L254.092 311.033C240.773 304.01 224.764 313.705 224.764 328.762C224.764 466.327 224.764 552.94 224.764 699.132L0 581.037C31.7902 579.055 56.4694 554.924 56.4694 525.823V80.973L0 0L460.369 288.898C466.869 292.977 475.131 292.977 481.631 288.898L942 0L885.531 80.973V525.823C885.531 554.924 910.21 579.055 942 581.037L717.236 699.132V328.725C717.236 313.668 701.227 304.011 687.908 311.033L565.979 375.324C559.415 378.785 555.307 385.595 555.307 393.015V706.604C555.307 706.604 555.307 706.604 555.307 829H509H471Z" fill="#00C2FF"/>
</g>
<defs>
<clipPath id="clip0_32_8">
<rect width="942" height="829" fill="white"/>
</clipPath>
</defs>
</svg>
